<svg width="39" height="39" viewBox="0 0 39 39" fill="none" xmlns="http://www.w3.org/2000/svg">
<mask id="mask0_4300_325" style="mask-type:luminance" maskUnits="userSpaceOnUse" x="10" y="4" width="19" height="31">
<path d="M28.8125 4.50098H10.6875V34.501H28.8125V4.50098Z" fill="white"/>
</mask>
<g mask="url(#mask0_4300_325)">
<path d="M13.1275 34.501C12.4321 34.501 11.8516 34.2698 11.3859 33.8073C10.9203 33.3449 10.6875 32.7686 10.6875 32.0784V6.92412C10.6875 6.23353 10.9203 5.65721 11.3859 5.19515C11.8516 4.73308 12.4321 4.50169 13.1275 4.50098H26.3725C27.0679 4.50098 27.6484 4.73237 28.114 5.19515C28.5797 5.65793 28.8125 6.23425 28.8125 6.92412V32.0784C28.8125 32.7686 28.5797 33.3449 28.114 33.8073C27.6484 34.2698 27.0679 34.501 26.3725 34.501H13.1275ZM12.1982 27.809V32.0784C12.1982 32.3087 12.2946 32.5207 12.4886 32.7128C12.6826 32.9049 12.895 33.0012 13.1275 33.0012H26.3725C26.6048 33.0012 26.8179 32.9051 27.0119 32.7128C27.2054 32.5207 27.3024 32.3087 27.3024 32.0784V27.809H12.1982ZM19.75 31.5591C20.0256 31.5652 20.2947 31.4758 20.5112 31.3063C20.7276 31.1367 20.8779 30.8976 20.9362 30.6301C20.9945 30.3625 20.9571 30.0831 20.8306 29.8399C20.704 29.5967 20.4962 29.4048 20.2427 29.2972C19.9892 29.1897 19.7059 29.1731 19.4414 29.2504C19.177 29.3276 18.9478 29.4939 18.7934 29.7207C18.639 29.9475 18.5689 30.2206 18.5951 30.4931C18.6213 30.7656 18.7423 31.0206 18.9372 31.2142C19.0419 31.3236 19.168 31.4107 19.3077 31.47C19.4475 31.5293 19.598 31.5596 19.75 31.5591ZM12.1982 26.3087H27.3024V9.75138H12.1982V26.3087ZM12.1982 8.25111H27.3024V6.92412C27.3024 6.6938 27.2054 6.48178 27.0119 6.28968C26.8185 6.09757 26.605 6.00286 26.3725 6.00286H13.1275C12.8952 6.00286 12.6822 6.099 12.4886 6.29129C12.2946 6.4834 12.1982 6.69542 12.1982 6.92573V8.25111ZM18.2182 20.0203H23.6513C23.7341 20.0227 23.8165 20.0086 23.8937 19.9788C23.9709 19.9491 24.0413 19.9042 24.1007 19.8469C24.1601 19.7896 24.2073 19.7211 24.2396 19.6454C24.2718 19.5696 24.2885 19.4882 24.2885 19.406C24.2885 19.3238 24.2718 19.2424 24.2396 19.1666C24.2073 19.0909 24.1601 19.0224 24.1007 18.9651C24.0413 18.9078 23.9709 18.8629 23.8937 18.8332C23.8165 18.8034 23.7341 18.7893 23.6513 18.7917H16.779C16.4918 18.7917 16.2955 18.9245 16.19 19.1899C16.0845 19.4554 16.1333 19.6875 16.3363 19.8863L18.883 22.4208C18.9957 22.5345 19.1483 22.6005 19.3089 22.6048C19.3929 22.6085 19.4766 22.5939 19.5543 22.5621C19.6319 22.5303 19.7017 22.4821 19.7587 22.4208C19.8207 22.3663 19.8703 22.2994 19.9043 22.2244C19.9383 22.1495 19.9558 22.0682 19.9558 21.986C19.9558 21.9038 19.9383 21.8225 19.9043 21.7476C19.8703 21.6726 19.8207 21.6057 19.7587 21.5512L18.2182 20.0203ZM21.2824 15.7099H15.8487C15.7659 15.7075 15.6835 15.7216 15.6063 15.7514C15.5291 15.7811 15.4587 15.826 15.3993 15.8833C15.3399 15.9406 15.2927 16.0091 15.2604 16.0848C15.2282 16.1606 15.2115 16.242 15.2115 16.3242C15.2115 16.4064 15.2282 16.4878 15.2604 16.5636C15.2927 16.6393 15.3399 16.7078 15.3993 16.7651C15.4587 16.8224 15.5291 16.8673 15.6063 16.897C15.6835 16.9268 15.7659 16.9409 15.8487 16.9385H22.7215C23.0087 16.9385 23.205 16.8057 23.3105 16.5403C23.416 16.2748 23.368 16.0416 23.1664 15.8407L20.617 13.3094C20.5042 13.1959 20.3516 13.13 20.1911 13.1254C20.1072 13.1217 20.0236 13.1363 19.946 13.1681C19.8684 13.1999 19.7987 13.2481 19.7419 13.3094C19.6797 13.3638 19.63 13.4307 19.5959 13.5057C19.5618 13.5806 19.5441 13.6619 19.5441 13.7442C19.5441 13.8265 19.5618 13.9078 19.5959 13.9827C19.63 14.0577 19.6797 14.1246 19.7419 14.179L21.2824 15.7099Z" fill="#059CD6"/>
</g>
</svg>
