<svg width="39" height="39" viewBox="0 0 39 39" fill="none" xmlns="http://www.w3.org/2000/svg">
<mask id="mask0_4300_331" style="mask-type:luminance" maskUnits="userSpaceOnUse" x="4" y="11" width="31" height="18">
<path d="M34.25 11.001H4.25V28.001H34.25V11.001Z" fill="white"/>
</mask>
<g mask="url(#mask0_4300_331)">
<path d="M16.0835 24.7679C16.3501 24.2279 16.6101 23.6879 16.8768 23.1546C18.2968 20.2746 19.7235 17.4079 21.1368 14.5279C21.1715 14.4248 21.2411 14.3371 21.3336 14.2799C21.4261 14.2227 21.5357 14.1996 21.6435 14.2146C23.5501 14.2146 25.4634 14.2146 27.3701 14.2146C27.4196 14.206 27.4703 14.2073 27.5193 14.2184C27.5683 14.2296 27.6146 14.2503 27.6555 14.2795C27.6964 14.3086 27.7311 14.3456 27.7577 14.3882C27.7842 14.4308 27.8021 14.4783 27.8101 14.5279C28.0143 15.1705 28.3716 15.7538 28.8512 16.2276C29.3308 16.7014 29.9185 17.0516 30.5635 17.2479C30.6589 17.2657 30.7433 17.3206 30.7983 17.4006C30.8533 17.4806 30.8743 17.5791 30.8568 17.6746C30.8568 18.8946 30.8568 20.1212 30.8568 21.3412C30.8744 21.4428 30.8514 21.5472 30.7928 21.632C30.7342 21.7167 30.6447 21.7751 30.5435 21.7946C29.8932 21.9959 29.3024 22.3542 28.8234 22.8378C28.3444 23.3215 27.9918 23.9157 27.7968 24.5679C27.7101 24.8412 27.5501 24.8212 27.3568 24.8212H16.4168C16.3028 24.841 16.1855 24.8223 16.0835 24.7679ZM23.5568 23.3212C24.0835 23.3212 24.0901 23.3212 24.0835 22.7746C24.0835 22.5679 24.0835 22.3879 24.3435 22.2879C24.6727 22.1844 24.9596 21.9772 25.1615 21.6973C25.3633 21.4174 25.4693 21.0796 25.4635 20.7346C25.4788 20.4099 25.397 20.088 25.2283 19.8101C25.0597 19.5321 24.8119 19.3109 24.5168 19.1746C24.1501 18.9746 23.7635 18.8013 23.3835 18.6213C23.1501 18.5146 22.9835 18.3746 23.0435 18.0812C23.1035 17.7879 23.3368 17.6946 23.5968 17.6746C23.9662 17.6464 24.3355 17.73 24.6568 17.9146C24.7368 17.9612 24.8635 18.1013 24.9235 17.9746C25.1014 17.7134 25.2073 17.4098 25.2301 17.0946C25.2301 16.8146 24.9101 16.7212 24.6968 16.7012C24.1901 16.6612 24.0768 16.3812 24.1501 15.9479C24.1501 15.7812 24.1101 15.7079 23.9301 15.7212C23.8129 15.7379 23.694 15.7379 23.5768 15.7212C23.1501 15.6412 23.0301 15.8346 23.0701 16.2346C23.0701 16.4079 23.1501 16.6012 22.8634 16.7079C22.5521 16.8011 22.2785 16.9908 22.082 17.2496C21.8855 17.5084 21.7763 17.823 21.7701 18.1479C21.7495 18.4727 21.8317 18.7957 22.0053 19.071C22.1788 19.3463 22.4348 19.5599 22.7368 19.6812C23.0634 19.8546 23.4035 19.9946 23.7301 20.1546C23.8795 20.2116 24.0034 20.3204 24.0793 20.4611C24.1552 20.6018 24.178 20.7651 24.1435 20.9213C24.0568 21.2679 23.7501 21.3479 23.4368 21.3612C23.0129 21.3696 22.5957 21.2537 22.2368 21.0279C22.1434 20.9746 22.0435 20.8346 21.9301 21.0279C21.5235 21.7812 21.6568 22.1146 22.4835 22.3612C22.5567 22.3863 22.6329 22.402 22.7101 22.4079C22.9568 22.4079 22.9968 22.5546 22.9968 22.7679C22.9834 23.3212 22.9968 23.3212 23.5568 23.3212Z" fill="#059CD6"/>
<path d="M23.2568 27.9948C20.5101 27.9948 17.7568 27.9948 15.0034 27.9948C14.6568 27.9948 14.5901 27.9214 14.7634 27.6148C14.9456 27.2938 15.1081 26.9621 15.2501 26.6214C15.3501 26.3548 15.5101 26.2948 15.7834 26.2948C20.8901 26.2681 26.0012 26.2681 31.1167 26.2948C32.1501 26.2948 32.5234 25.9281 32.5234 24.9014V14.0148C32.5234 13.1348 32.1234 12.7348 31.2501 12.7348H22.3568C22.0834 12.7348 21.9634 12.7348 22.1368 12.4148C22.3768 11.9748 22.4834 11.3748 22.8034 11.1148C23.1234 10.8548 23.7701 11.0414 24.2634 11.0414C26.5834 11.0414 28.8968 11.0414 31.2168 11.0414C31.6163 11.0114 32.0177 11.0681 32.3933 11.2077C32.7689 11.3473 33.11 11.5664 33.393 11.8501C33.676 12.1337 33.8944 12.4752 34.0331 12.8512C34.1719 13.2271 34.2277 13.6286 34.1967 14.0281C34.1967 17.7414 34.1967 21.4548 34.1967 25.1681C34.2177 25.732 34.0618 26.2883 33.7511 26.7592C33.4403 27.2302 32.9901 27.5923 32.4634 27.7948C32.1218 27.9378 31.7536 28.006 31.3834 27.9948H23.2568Z" fill="#059CD6"/>
<path d="M14.0968 15.0277C12.7634 15.0277 11.3834 15.0277 10.0301 15.0277C9.91505 15.0434 9.79796 15.0337 9.68708 14.9992C9.57621 14.9647 9.47425 14.9063 9.38842 14.8281C9.30258 14.7499 9.23497 14.6538 9.19034 14.5466C9.14571 14.4394 9.12515 14.3237 9.13012 14.2077C9.13012 13.6877 9.49679 13.361 10.0968 13.361H18.2234C18.3359 13.3565 18.4482 13.3747 18.5536 13.4145C18.6589 13.4543 18.7552 13.5149 18.8367 13.5926C18.9181 13.6704 18.9831 13.7637 19.0278 13.8671C19.0725 13.9704 19.0959 14.0817 19.0968 14.1943C19.0997 14.3069 19.0793 14.4188 19.0367 14.523C18.9942 14.6272 18.9305 14.7215 18.8497 14.7998C18.7688 14.8781 18.6726 14.9388 18.5671 14.9781C18.4616 15.0173 18.3491 15.0342 18.2367 15.0277C16.8567 15.0277 15.4768 15.0277 14.0968 15.0277Z" fill="#059CD6"/>
<path d="M8.98335 20.3607H5.19665C5.01795 20.3792 4.83798 20.3409 4.68237 20.2511C4.52675 20.1613 4.40343 20.0247 4.32999 19.8607C4.25993 19.7188 4.23394 19.5592 4.25532 19.4024C4.27671 19.2456 4.34449 19.0987 4.44999 18.9807C4.55836 18.8646 4.69305 18.7761 4.84269 18.7227C4.99233 18.6694 5.15259 18.6527 5.31001 18.6741H12.77C13.3767 18.6741 13.7433 19.0008 13.75 19.5141C13.7567 20.0274 13.3767 20.3541 12.77 20.3607H8.98335Z" fill="#059CD6"/>
<path d="M10.2502 25.6939H7.5836C7.40481 25.7071 7.22651 25.6627 7.07477 25.5672C6.92303 25.4717 6.80585 25.3302 6.7403 25.1633C6.67475 24.9965 6.66429 24.813 6.71047 24.6398C6.75665 24.4666 6.85702 24.3127 6.99693 24.2006C7.16603 24.0701 7.37714 24.006 7.59027 24.0206C9.36361 24.0206 11.1369 24.0206 12.9236 24.0206C13.0339 24.0206 13.1431 24.0423 13.245 24.0846C13.3469 24.1268 13.4395 24.1886 13.5175 24.2666C13.5955 24.3446 13.6574 24.4372 13.6996 24.5391C13.7418 24.6411 13.7636 24.7503 13.7636 24.8606C13.7636 24.9709 13.7418 25.0801 13.6996 25.1821C13.6574 25.284 13.5955 25.3766 13.5175 25.4546C13.4395 25.5326 13.3469 25.5944 13.245 25.6366C13.1431 25.6789 13.0339 25.7006 12.9236 25.7006C12.0102 25.6939 11.1302 25.6939 10.2502 25.6939Z" fill="#059CD6"/>
</g>
</svg>
