<svg width="39" height="39" viewBox="0 0 39 39" fill="none" xmlns="http://www.w3.org/2000/svg">
<mask id="mask0_4300_310" style="mask-type:luminance" maskUnits="userSpaceOnUse" x="6" y="4" width="27" height="31">
<path d="M32.9349 4.25098H6.06494V34.251H32.9349V4.25098Z" fill="white"/>
</mask>
<g mask="url(#mask0_4300_310)">
<path d="M28.8849 34.251H10.1349C9.05722 34.251 8.02351 33.8236 7.26053 33.0625C6.49754 32.3014 6.06759 31.2687 6.06494 30.191V8.31097C6.06759 7.23328 6.49754 6.20063 7.26053 5.43951C8.02351 4.6784 9.05722 4.25097 10.1349 4.25098H28.8849C29.9617 4.25098 30.9944 4.67873 31.7558 5.44012C32.5172 6.20152 32.9449 7.2342 32.9449 8.31097V30.191C32.9449 31.2678 32.5172 32.3005 31.7558 33.0619C30.9944 33.8233 29.9617 34.251 28.8849 34.251ZM10.1349 6.13098C9.55582 6.13098 9.00029 6.36035 8.58987 6.76889C8.17946 7.17743 7.94756 7.73188 7.94492 8.31097V30.191C7.94755 30.771 8.17913 31.3265 8.58926 31.7367C8.9994 32.1468 9.5549 32.3784 10.1349 32.381H28.8849C29.464 32.3784 30.0185 32.1465 30.427 31.7361C30.8356 31.3256 31.0649 30.7701 31.0649 30.191V8.31097C31.0623 7.73361 30.8318 7.18066 30.4235 6.7724C30.0153 6.36414 29.4623 6.13361 28.8849 6.13098H10.1349ZM24.9749 29.541H14.0349C13.8036 29.517 13.5894 29.4082 13.4337 29.2355C13.278 29.0628 13.1917 28.8385 13.1917 28.606C13.1917 28.3734 13.278 28.1492 13.4337 27.9765C13.5894 27.8038 13.8036 27.6949 14.0349 27.671H24.9749C25.1058 27.6574 25.2381 27.6715 25.3633 27.7123C25.4884 27.7531 25.6035 27.8198 25.7013 27.9079C25.799 27.9961 25.8771 28.1037 25.9306 28.224C25.9841 28.3442 26.0117 28.4744 26.0117 28.606C26.0117 28.7376 25.9841 28.8678 25.9306 28.988C25.8771 29.1083 25.799 29.2159 25.7013 29.304C25.6035 29.3922 25.4884 29.4589 25.3633 29.4997C25.2381 29.5405 25.1058 29.5545 24.9749 29.541ZM19.5049 25.641C17.7743 25.641 16.0826 25.1278 14.6437 24.1664C13.2047 23.2049 12.0833 21.8383 11.421 20.2395C10.7587 18.6406 10.5854 16.8813 10.9231 15.184C11.2607 13.4866 12.094 11.9275 13.3177 10.7038C14.5415 9.48009 16.1005 8.64673 17.7979 8.30911C19.4952 7.97149 21.2545 8.14477 22.8534 8.80704C24.4522 9.4693 25.8188 10.5908 26.7803 12.0298C27.7417 13.4687 28.2549 15.1604 28.2549 16.891C28.2549 19.2135 27.3337 21.4411 25.6933 23.0852C24.053 24.7294 21.8274 25.6557 19.5049 25.661V25.641ZM17.3449 17.821C17.5249 21.681 18.8149 23.761 19.5049 23.761C20.1949 23.761 21.5049 21.681 21.6749 17.821H17.3449ZM23.5449 17.821C23.4977 19.6327 23.1251 21.4211 22.4449 23.101C23.4773 22.6109 24.3715 21.8717 25.0471 20.95C25.7226 20.0283 26.1583 18.953 26.3149 17.821H23.5449ZM12.6949 17.821C12.8532 18.9524 13.2896 20.0269 13.965 20.9483C14.6404 21.8698 15.5337 22.6094 16.5649 23.101C15.8848 21.4211 15.5122 19.6327 15.4649 17.821H12.6949ZM23.5449 15.951H26.3149C26.1575 14.8193 25.7214 13.7444 25.046 12.8228C24.3705 11.9012 23.4767 11.1618 22.4449 10.671C23.1264 12.3574 23.499 14.1527 23.5449 15.971V15.951ZM17.3449 15.951H21.6749C21.4849 12.101 20.1949 10.011 19.5049 10.011C18.8149 10.011 17.5249 12.121 17.3449 15.971V15.951ZM12.6949 15.951H15.4649C15.5133 14.1394 15.8858 12.3512 16.5649 10.671C15.5279 11.1626 14.6294 11.9043 13.9503 12.8295C13.2713 13.7547 12.833 14.8343 12.6749 15.971L12.6949 15.951Z" fill="#059CD6"/>
</g>
</svg>
