<svg width="39" height="39" viewBox="0 0 39 39" fill="none" xmlns="http://www.w3.org/2000/svg">
<mask id="mask0_4300_316" style="mask-type:luminance" maskUnits="userSpaceOnUse" x="6" y="4" width="27" height="31">
<path d="M32.2346 4.25098H6.76465V34.251H32.2346V4.25098Z" fill="white"/>
</mask>
<g mask="url(#mask0_4300_316)">
<path d="M29.0444 34.2509C28.7632 34.2509 28.4936 34.1392 28.2948 33.9404C28.096 33.7416 27.9844 33.472 27.9844 33.1909V31.0709C27.9844 29.6644 27.4263 28.3152 26.4327 27.3197C25.439 26.3242 24.0909 25.7635 22.6844 25.7609H16.3144C14.9077 25.7661 13.5601 26.3273 12.5655 27.322C11.5708 28.3166 11.0096 29.6642 11.0044 31.0709V33.1909C11.0057 33.3305 10.9792 33.4689 10.9264 33.5981C10.8736 33.7273 10.7956 33.8447 10.6969 33.9434C10.5982 34.0421 10.4808 34.1201 10.3516 34.1729C10.2224 34.2257 10.0839 34.2523 9.94438 34.2509C9.80481 34.2523 9.66636 34.2257 9.53715 34.1729C9.40795 34.1201 9.29059 34.0421 9.19189 33.9434C9.09319 33.8447 9.01515 33.7273 8.96236 33.5981C8.90956 33.4689 8.88305 33.3305 8.88438 33.1909V31.2509C8.87169 30.2238 9.062 29.2043 9.44438 28.2509C10.0114 26.896 10.9658 25.7385 12.188 24.9238C13.4101 24.109 14.8455 23.6732 16.3144 23.6709H22.6844C24.1524 23.6712 25.5874 24.1064 26.8083 24.9215C28.0292 25.7366 28.9813 26.8952 29.5444 28.2509C29.9338 29.2025 30.1276 30.2228 30.1144 31.2509V33.1909C30.1144 33.331 30.0866 33.4696 30.0327 33.5989C29.9788 33.7281 29.8998 33.8454 29.8004 33.944C29.7009 34.0425 29.5828 34.1204 29.4531 34.1731C29.3233 34.2258 29.1844 34.2522 29.0444 34.2509Z" fill="#059CD6"/>
<path d="M8.88465 9.9809V18.4709C8.88465 18.752 8.77295 19.0216 8.57416 19.2204C8.37537 19.4192 8.10578 19.5309 7.82465 19.5309C7.54352 19.5309 7.2739 19.4192 7.07511 19.2204C6.87632 19.0216 6.76465 18.752 6.76465 18.4709V9.9809C6.76465 9.69977 6.87632 9.43014 7.07511 9.23135C7.2739 9.03257 7.54352 8.9209 7.82465 8.9209C8.10578 8.9209 8.37537 9.03257 8.57416 9.23135C8.77295 9.43014 8.88465 9.69977 8.88465 9.9809Z" fill="#059CD6"/>
<path d="M6.7647 5.31097C6.76336 5.45055 6.78985 5.58899 6.84264 5.7182C6.89544 5.84741 6.97347 5.96481 7.07217 6.06351C7.17086 6.1622 7.28826 6.24023 7.41747 6.29303C7.54668 6.34583 7.68513 6.37231 7.8247 6.37097H12.0647V13.801C12.0619 15.4473 12.606 17.0479 13.6114 18.3515C14.6169 19.6551 16.0268 20.5878 17.6198 21.0033C19.2129 21.4187 20.8988 21.2933 22.4128 20.6467C23.9268 20.0001 25.1832 18.869 25.9847 17.431C26.6248 16.261 26.9488 14.9444 26.9247 13.611V6.37097H31.1747C31.3143 6.37231 31.4527 6.34583 31.5819 6.29303C31.7111 6.24023 31.8285 6.1622 31.9272 6.06351C32.0259 5.96481 32.104 5.84741 32.1568 5.7182C32.2096 5.58899 32.2361 5.45055 32.2347 5.31097C32.2347 5.02984 32.123 4.76025 31.9243 4.56146C31.7255 4.36267 31.4559 4.25098 31.1747 4.25098H7.8247C7.54357 4.25098 7.27394 4.36267 7.07516 4.56146C6.87637 4.76025 6.7647 5.02984 6.7647 5.31097ZM24.7647 13.711C24.7876 14.9237 24.3947 16.1076 23.6512 17.0659C22.9078 18.0243 21.8587 18.6992 20.6784 18.9785C19.4981 19.2578 18.2578 19.1247 17.1637 18.6011C16.0696 18.0776 15.1877 17.1953 14.6647 16.101C14.3154 15.3463 14.141 14.5225 14.1547 13.691V12.351C14.1547 12.175 14.2239 12.0061 14.3474 11.8807C14.4709 11.7554 14.6388 11.6836 14.8147 11.681H24.0947C24.1827 11.681 24.2698 11.6983 24.3511 11.732C24.4324 11.7657 24.5063 11.815 24.5685 11.8772C24.6307 11.9394 24.68 12.0133 24.7137 12.0946C24.7474 12.1759 24.7647 12.263 24.7647 12.351V13.711ZM24.1347 9.54099H14.8547C14.6805 9.5384 14.5141 9.46804 14.3909 9.34482C14.2677 9.2216 14.1973 9.05522 14.1947 8.88098V7.04099C14.1947 6.86501 14.2639 6.69607 14.3874 6.57071C14.5109 6.44534 14.6788 6.3736 14.8547 6.37097H24.1347C24.2227 6.37097 24.3098 6.38833 24.3911 6.422C24.4724 6.45567 24.5463 6.50501 24.6085 6.56723C24.6707 6.62945 24.7201 6.70329 24.7537 6.78458C24.7874 6.86586 24.8047 6.953 24.8047 7.04099V8.90097C24.797 9.07341 24.723 9.23624 24.5982 9.35547C24.4734 9.4747 24.3074 9.54116 24.1347 9.54099Z" fill="#059CD6"/>
<path d="M8.88465 12.0112V20.5412C8.88465 20.8223 8.77295 21.0919 8.57416 21.2907C8.37537 21.4895 8.10578 21.6012 7.82465 21.6012C7.54352 21.6012 7.2739 21.4895 7.07511 21.2907C6.87632 21.0919 6.76465 20.8223 6.76465 20.5412V12.0512C6.76465 11.7701 6.87632 11.5005 7.07511 11.3017C7.2739 11.1029 7.54352 10.9912 7.82465 10.9912C8.10578 10.9912 8.37537 11.1029 8.57416 11.3017C8.77295 11.5005 8.88465 11.7701 8.88465 12.0512V12.0112Z" fill="#059CD6"/>
</g>
</svg>
