<svg xmlns="http://www.w3.org/2000/svg" viewBox="0 0 2238.45 587.86"><g id="Layer_2" data-name="Layer 2"><g id="Iphone_x" data-name="Iphone x"><path d="M563.2,100.24a2.14,2.14,0,0,1,0,2.11L461,279.32l-7.81,13.51-58.4,101.26L387,407.38l-46.87,81.18-56.36,98.27a2.18,2.18,0,0,1-3,.7,2.16,2.16,0,0,1-.71-.7l-56.65-98.05L.32,102.36a1.9,1.9,0,0,1,0-2.12l56-97a2.19,2.19,0,0,1,3.72,0l220,381a2.19,2.19,0,0,0,3,.71,2.16,2.16,0,0,0,.7-.71l45-77.89h0l7.81-13.44,58.4-101.33,7.81-13.51,21.91-37.81L485.16,35,503.48,3.29a2.19,2.19,0,0,1,3.73,0L524,32.49l3.72,6.5Z" fill="#223f81"/><path d="M387,178h0l-56.65,98a2.19,2.19,0,0,1-3.72,0L226.35,102.21a1.9,1.9,0,0,1,0-2.12l36.5-63,11.39-19.71,8.25-14.61a2.2,2.2,0,0,1,3-.7,2.16,2.16,0,0,1,.71.7L302.93,32l62.28,108Z" fill="#223f81"/><path d="M752.14,153.46l3.29,5.77a2.2,2.2,0,0,1,0,2.11L566.34,488.78l-56.29,98.05a2.18,2.18,0,0,1-3,.7,2.16,2.16,0,0,1-.71-.7l-56.65-98.05-46.22-80.31a2.22,2.22,0,0,1,0-2.12L459,309.55a2.19,2.19,0,0,1,3.72,0l43.15,74.68a2.19,2.19,0,0,0,3.72,0L669.13,108.05A2.21,2.21,0,0,1,671,107h6.28l47.67.66a2.28,2.28,0,0,1,1.9,1.1Z" fill="#223f81"/><path d="M488.15,3.21l-51.1,88.56a2.12,2.12,0,0,1-1.83,1.09H354.91a2.1,2.1,0,0,1-1.82-1.09L302,3.21A2.12,2.12,0,0,1,303.81,0H486.33a2.11,2.11,0,0,1,2.13,2.1A2.16,2.16,0,0,1,488.15,3.21Z" fill="#059cd6"/><path d="M789.89,3.65V184.34a2.19,2.19,0,0,1-2.3,2.08,2.21,2.21,0,0,1-1.72-1L764,146.74l-29.2-51.1a2.13,2.13,0,0,0-1.83-1.1l-55.48-.8L629.2,93a2.19,2.19,0,0,1-1-4.09L704.47,47l41.18-22.71,41-22.56a2.13,2.13,0,0,1,3.22,1.9Z" fill="#059cd6"/><path d="M988.05,506.72c-11.41,21.52-22.16,41.81-32.93,62.09a86.94,86.94,0,0,1-4.73,8.37c-9.71,14.23-29.58,14.18-39.18-.06-1.19-1.76-2.17-3.67-3.19-5.55q-57.48-106.5-114.93-213c-1.11-2.06-2.09-4.2-3.65-7.36h16.64c8.29,0,16.6.36,24.87-.13,5.32-.31,8,1.52,10.47,6.28C859.33,392,877.59,426.45,895.75,461q17.89,34,35.8,68c2.77-.45,3.07-2.9,4-4.59,9.68-17.24,19.11-34.62,28.95-51.76,2.45-4.26,2.2-7.55,0-11.74q-26.79-50.65-53.21-101.49c-1.21-2.33-2.93-4.45-3.27-7.64,3.37-1.13,6.8-.54,10.13-.57,10.16-.08,20.34.31,30.48-.16,5.6-.27,8.46,1.64,11,6.66,22.94,46.16,46.17,92.18,69.32,138.24,5.51,11,11,21.95,16.71,33.24,3-1.55,3.6-4.58,4.86-7q43.61-82.1,87-164.31c2.53-4.82,5.09-7.13,10.88-6.89,12.27.52,24.57.16,36.83.16,1,2.73-.76,4.3-1.69,6q-58,107.59-116,215.15c-.51.94-1,1.9-1.55,2.81-10.19,16.9-32.14,17-41.72-.24-10.11-18.21-19.47-36.84-29.18-55.28C992.93,515.66,990.74,511.71,988.05,506.72Z" fill="#223f81"/><path d="M1550.52,584.4q-44.13,0-88.26,0c-6.52,0-6.57-.06-6.59-6.36,0-9.9.11-19.8-.07-29.69-.07-3.45,1-4.85,4.54-4.59,3.2.23,6.42,0,9.63,0q77.82,0,155.64,0a81.89,81.89,0,0,0,15.17-1.15c14.6-2.74,23.64-13.66,23.86-28.82.24-16.36-7.07-25.86-22.41-29.58-4.76-1.15-9.54-1.12-14.34-1.13q-52.15,0-104.3,0c-12.45,0-24.48-2.11-35.74-7.62-21.57-10.54-32.87-28.17-35.16-51.79a72,72,0,0,1,.87-21.57c6-29.08,28.34-48.05,59.47-50.47,4.52-.36,9.08-.43,13.62-.43q78.22,0,156.45,0c9.95,0,8.64-.7,8.7,8.43.05,9.37-.09,18.73.06,28.09,0,3.14-1.1,4.37-4.17,4.14-1.87-.14-3.75,0-5.62,0H1530.24c-2.41,0-4.82-.06-7.22,0-20.28.6-31.89,15.05-28.1,35,2.32,12.17,10.41,19.79,22.82,21.24a99.8,99.8,0,0,0,11.21.51q48.54,0,97.08,0c9.08,0,18.15.32,27.13,2.13,29,5.83,44.09,21.4,48.87,50.77a84.75,84.75,0,0,1-1.38,35c-6.73,26.05-24.19,40.66-50,46.12a83.84,83.84,0,0,1-19.93,1.75c-.54,0-1.07,0-1.61,0Z" fill="#223f81"/><path d="M1859.18,406c-13.83,23.37-27.3,46.12-40.75,68.88-20.4,34.5-40.87,69-61.06,103.58-2.63,4.51-5.44,6.22-10.68,6-12.75-.42-25.52-.14-38.38-.14-.14-3.18,1.7-4.94,2.87-6.9q63.93-106.54,127.94-213c2.06-3.44,4-6.94,6.83-9.87,8.83-9.23,21.85-9.11,30.36.41a47.92,47.92,0,0,1,5.08,7.18q65.37,108.48,130.65,217c.78,1.3,2.13,2.44,1.76,5.2H2008c-11.77,0-23.54-.22-35.3.11-4.83.14-7.65-1.28-10.12-5.62-8.74-15.31-18.23-30.2-26.84-45.58-3.31-5.91-7.12-7.82-13.89-7.72-30.48.44-61,.19-91.47.19h-7.66c-1.75-2.54.22-3.91,1-5.35,4.35-7.67,9.12-15.11,13.19-22.92,2.07-4,4.66-5,8.87-4.92,19.79.21,39.58.11,59.37.06,1.51,0,3.16.55,4.54-.6C1908,486.32,1867.94,418,1859.18,406Z" fill="#223f81"/><path d="M1211.74,467.6V360.11c0-1.87.07-3.74,0-5.61-.1-2.38,1-3.38,3.34-3.28,1.6.07,3.2,0,4.81,0h191.7c.8,0,1.61,0,2.41,0,6,.14,6.06.14,6.1,6.27.05,9.9-.1,19.79.07,29.68.06,3.38-.9,5-4.49,4.7-1.86-.18-3.74,0-5.61,0H1261.68c-1.87,0-3.75.13-5.61,0-3.29-.27-4.24,1.41-4,4.34.09,1.06,0,2.13,0,3.2V535.73c0,1.61,0,3.21,0,4.81,0,2.41,1.29,3.28,3.51,3.25s4.28,0,6.42,0h148.39c1.87,0,3.76.15,5.61,0,3.69-.34,4.45,1.53,4.41,4.8-.15,10.42-.18,20.86,0,31.28.07,3.49-1.07,4.94-4.55,4.57a35.73,35.73,0,0,0-4,0l-191.7,0h-2.41c-6.54.07-6.06.11-6.06-6.13Q1211.76,523,1211.74,467.6Z" fill="#223f81"/><path d="M2040.37,467.58q0-54.52,0-109.06c0-7.43-.63-7.36,7.48-7.33q12.84,0,25.66,0c8.88,0,7.92-.23,7.92,7.63q0,38.1,0,76.19,0,49.71,0,99.44c0,2.13,0,4.27,0,6.41a2.62,2.62,0,0,0,3,2.89c2.14,0,4.28,0,6.41,0h138.73c9.57,0,8.71-.88,8.73,8.47,0,9.09-.17,18.18.09,27.26.12,4-1.36,5-5.1,5-17.1-.15-34.21-.07-51.32-.07h-132.3c-2.14,0-4.28,0-6.42,0-1.9,0-2.94-.93-2.91-2.92s0-3.74,0-5.61Z" fill="#223f81"/><path d="M1346.37,483.14q-29.28,0-58.56,0c-5.66,0-5.74-.11-5.8-5.63-.07-8,.17-16.05-.09-24.07-.14-4,1.44-5.34,5.16-4.87a12.2,12.2,0,0,0,1.6,0q57.77,0,115.52,0c7,0,7,.06,7,6.94,0,7.48-.22,15,.1,22.46.18,4.4-1.61,5.28-5.6,5.24C1386,483,1366.16,483.13,1346.37,483.14Z" fill="#223f81"/></g></g></svg>