<svg xmlns="http://www.w3.org/2000/svg" xmlns:xlink="http://www.w3.org/1999/xlink" viewBox="0 0 65.73 65.38"><defs><clipPath id="clip-path" transform="translate(0 -0.02)"><rect x="21.48" width="22.72" height="22.76" fill="none"/></clipPath><clipPath id="clip-path-2" transform="translate(0 -0.02)"><rect x="21.48" y="42.59" width="22.72" height="22.79" fill="none"/></clipPath></defs><g id="Layer_2" data-name="Layer 2"><g id="STORY_1" data-name="STORY 1"><path d="M22.47,55.32a1.06,1.06,0,0,1-.4-.08,25.48,25.48,0,0,1-3.63-2.15,24.52,24.52,0,0,1-3.22-2.72,25,25,0,0,1-4.86-6.85.49.49,0,0,1-.06-.17.57.57,0,0,1,0-.18,1.08,1.08,0,0,1,0-.18.84.84,0,0,1,.05-.17.87.87,0,0,1,.07-.17l.11-.15.13-.12.16-.1.17-.06.18,0h.18l.18,0,.16.08.15.11.12.13a1.3,1.3,0,0,1,.1.15,22.36,22.36,0,0,0,2,3.37,23.71,23.71,0,0,0,2.51,3,23.53,23.53,0,0,0,6.33,4.51.83.83,0,0,1,.16.09l.13.12.11.15a1.19,1.19,0,0,1,.08.16,1.16,1.16,0,0,1,0,.18,1.09,1.09,0,0,1,0,.18.48.48,0,0,1,0,.18,1.27,1.27,0,0,1-.06.18.93.93,0,0,1-.82.51Z" transform="translate(0 -0.02)" fill="#223f81"/><path d="M43.45,55.23a1.06,1.06,0,0,1-.31,0,1.17,1.17,0,0,1-.27-.15,1.15,1.15,0,0,1-.21-.23,1.39,1.39,0,0,1-.12-.28,1.1,1.1,0,0,1,0-.31.75.75,0,0,1,.09-.3.9.9,0,0,1,.17-.26,1.44,1.44,0,0,1,.25-.18,22.71,22.71,0,0,0,3.33-2,22.35,22.35,0,0,0,5.41-5.45,22.69,22.69,0,0,0,1.94-3.34l.1-.15a.53.53,0,0,1,.12-.14.71.71,0,0,1,.14-.1.65.65,0,0,1,.17-.08l.17,0h.19l.18,0,.17.06.15.09.14.12.11.15a.87.87,0,0,1,.07.17.84.84,0,0,1,0,.17.54.54,0,0,1,0,.18.9.9,0,0,1,0,.18l-.06.18a24.87,24.87,0,0,1-2.1,3.6,24.1,24.1,0,0,1-2.67,3.2A23.47,23.47,0,0,1,47.44,53a23.91,23.91,0,0,1-3.58,2.12A1,1,0,0,1,43.45,55.23Z" transform="translate(0 -0.02)" fill="#223f81"/><path d="M54.39,22.9a.92.92,0,0,1-.83-.52A21.49,21.49,0,0,0,46.18,14a21,21,0,0,0-3.29-1.8.88.88,0,0,1-.25-.22.83.83,0,0,1-.16-.29.75.75,0,0,1,0-.33,1,1,0,0,1,.07-.33,1,1,0,0,1,.19-.27A.83.83,0,0,1,43,10.6a1,1,0,0,1,.33-.09.93.93,0,0,1,.33,0,23.33,23.33,0,0,1,3.56,2,23.39,23.39,0,0,1,5.86,5.6,24.14,24.14,0,0,1,2.14,3.47l.06.17a.52.52,0,0,1,0,.18,1.08,1.08,0,0,1,0,.18c0,.06,0,.12,0,.17a.89.89,0,0,1-.08.17,1.3,1.3,0,0,1-.1.15l-.14.12a.78.78,0,0,1-.15.1A1,1,0,0,1,54.39,22.9Z" transform="translate(0 -0.02)" fill="#223f81"/><path d="M11.35,22.9a.91.91,0,0,1-.23,0,1,1,0,0,1-.22-.09,1.24,1.24,0,0,1-.18-.14.9.9,0,0,1-.15-.19.67.67,0,0,1-.09-.21.59.59,0,0,1,0-.23.89.89,0,0,1,0-.23.83.83,0,0,1,.08-.22,24.89,24.89,0,0,1,4.82-6.65,24.64,24.64,0,0,1,6.7-4.74.58.58,0,0,1,.17-.06l.18,0h.18l.18,0,.16.08a.58.58,0,0,1,.15.11.49.49,0,0,1,.12.13.86.86,0,0,1,.1.16l.06.17,0,.18a1.09,1.09,0,0,1,0,.18,1.16,1.16,0,0,1,0,.18c0,.06,0,.11-.08.16a.83.83,0,0,1-.11.15l-.13.12-.16.1a23,23,0,0,0-3.29,1.93,23.63,23.63,0,0,0-2.93,2.45,23.09,23.09,0,0,0-4.47,6.15,1,1,0,0,1-.33.37A1,1,0,0,1,11.35,22.9Z" transform="translate(0 -0.02)" fill="#223f81"/><path d="M32.59,43.45A11.48,11.48,0,1,1,44.06,32,11.49,11.49,0,0,1,32.59,43.45Zm0-21.41A9.93,9.93,0,1,0,42.51,32,9.94,9.94,0,0,0,32.59,22Z" transform="translate(0 -0.02)" fill="#223f81"/><g clip-path="url(#clip-path)"><path d="M32.84,0a10.31,10.31,0,0,0-1.11.05c-.37,0-.74.09-1.1.16S29.9.4,29.55.51A9.32,9.32,0,0,0,28.5.88a9.18,9.18,0,0,0-1,.48,9.32,9.32,0,0,0-1,.57c-.31.21-.6.43-.89.66s-.56.49-.82.75a8.39,8.39,0,0,0-.75.83,8.19,8.19,0,0,0-.66.89,9.32,9.32,0,0,0-.57,1,9.18,9.18,0,0,0-.48,1A10.07,10.07,0,0,0,22,8.07a10.65,10.65,0,0,0-.27,1.08,10.07,10.07,0,0,0-.17,1.1c0,.37,0,.74,0,1.11s0,.74,0,1.11.1.74.17,1.1A9.47,9.47,0,0,0,22,14.65c.11.36.23.71.37,1s.3.68.48,1,.37.64.57.95.43.61.67.9.48.56.74.82.54.51.83.75.58.45.89.66a9.32,9.32,0,0,0,1,.57,9.18,9.18,0,0,0,1,.48c.34.14.69.26,1,.37a9.47,9.47,0,0,0,1.08.27c.36.07.73.13,1.1.17s.74.05,1.11.05A10.32,10.32,0,0,0,34,22.64a10,10,0,0,0,1.1-.16,10.65,10.65,0,0,0,1.08-.27c.35-.11.7-.23,1-.37s.67-.31,1-.48.65-.37,1-.57.61-.43.9-.67a9.61,9.61,0,0,0,.82-.74c.27-.27.51-.54.75-.83a9.3,9.3,0,0,0,.66-.89,9.32,9.32,0,0,0,.57-1,9.18,9.18,0,0,0,.48-1,11,11,0,0,0,.37-1A10.65,10.65,0,0,0,44,13.57a10.07,10.07,0,0,0,.17-1.1c0-.37,0-.74,0-1.11s0-.75,0-1.11S44,9.51,44,9.15a9.47,9.47,0,0,0-.27-1.08c-.11-.36-.24-.71-.38-1.05s-.3-.68-.47-1-.37-.64-.58-1a8.19,8.19,0,0,0-.66-.89,9.85,9.85,0,0,0-.75-.83c-.26-.26-.53-.51-.82-.75s-.59-.45-.9-.66a8.24,8.24,0,0,0-1-.57,10.16,10.16,0,0,0-1-.48,11,11,0,0,0-1-.37A10.65,10.65,0,0,0,35.05.24,10.07,10.07,0,0,0,34,.07,10.31,10.31,0,0,0,32.84,0Zm3.93,8.51a1.1,1.1,0,0,1,0,.18.58.58,0,0,1-.06.17.8.8,0,0,1-.08.16.53.53,0,0,1-.12.14l-.14.12-.16.08-.17,0a.82.82,0,0,1-.36,0l-.18,0-.16-.08-.14-.12A.76.76,0,0,1,35.07,9,.83.83,0,0,1,35,8.88a1,1,0,0,1-.07-.35V7.85a.86.86,0,0,0,0-.23.88.88,0,0,0-.07-.23,1.06,1.06,0,0,0-.11-.21L34.57,7a1.19,1.19,0,0,0-.18-.15,1.06,1.06,0,0,0-.21-.11A.88.88,0,0,0,34,6.67a.85.85,0,0,0-.23,0H32l-.24,0a.94.94,0,0,0-.22.07,1.06,1.06,0,0,0-.21.11.84.84,0,0,0-.18.15,1.19,1.19,0,0,0-.15.18,2.12,2.12,0,0,0-.11.21,1.55,1.55,0,0,0-.07.23,1.64,1.64,0,0,0,0,.23V9.33a1,1,0,0,0,0,.24.7.7,0,0,0,.11.21.69.69,0,0,0,.16.18.88.88,0,0,0,.21.12l3.44.6a.46.46,0,0,1,.2.05c.14,0,.26.11.39.17l.35.22.31.28a2.78,2.78,0,0,1,.26.32c.08.11.15.23.22.35a3.12,3.12,0,0,1,.15.39c0,.13.07.27.1.4a3,3,0,0,1,0,.42v1.48a3.68,3.68,0,0,1-.06.57,3.47,3.47,0,0,1-.16.55,3.4,3.4,0,0,1-.26.5,2.66,2.66,0,0,1-.35.46,3.09,3.09,0,0,1-.43.37,2.43,2.43,0,0,1-.49.29,2.49,2.49,0,0,1-.54.2,2.62,2.62,0,0,1-.56.09v.74a1.1,1.1,0,0,1,0,.18,1.21,1.21,0,0,1,0,.18.65.65,0,0,1-.09.16.76.76,0,0,1-.11.14l-.14.11a.65.65,0,0,1-.16.09l-.18.05-.18,0-.18,0-.17-.05a.51.51,0,0,1-.16-.09l-.14-.11-.12-.14a1.19,1.19,0,0,1-.08-.16,1.21,1.21,0,0,1,0-.18.55.55,0,0,1,0-.18v-.74H32a3.05,3.05,0,0,1-.6-.06,3.08,3.08,0,0,1-.57-.17,3.84,3.84,0,0,1-.53-.28,3,3,0,0,1-1.12-1.37,2.69,2.69,0,0,1-.17-.57,3,3,0,0,1-.06-.59v-.69a1.09,1.09,0,0,1,0-.18.85.85,0,0,1,.06-.17.8.8,0,0,1,.08-.16.81.81,0,0,1,.12-.14l.14-.12a.8.8,0,0,1,.16-.08.85.85,0,0,1,.17-.06h.36a1.27,1.27,0,0,1,.18.06l.16.08.14.12a.76.76,0,0,1,.11.14.83.83,0,0,1,.09.16.84.84,0,0,1,.05.17,1.1,1.1,0,0,1,0,.18v.69a2,2,0,0,0,0,.23,1.87,1.87,0,0,0,.07.22,2.12,2.12,0,0,0,.11.21l.15.18.18.15.21.11.23.07.23,0h1.71l.23,0,.23-.07.2-.11.18-.15a1.19,1.19,0,0,0,.15-.18,1.06,1.06,0,0,0,.11-.21,1,1,0,0,0,.09-.45V13.26a.78.78,0,0,0,0-.26,1,1,0,0,0-.12-.23,1.07,1.07,0,0,0-.19-.18.86.86,0,0,0-.24-.11l-3.41-.59-.12,0a2.26,2.26,0,0,1-.39-.15,2.16,2.16,0,0,1-.36-.22,2.08,2.08,0,0,1-.32-.27,2.92,2.92,0,0,1-.28-.32,3.13,3.13,0,0,1-.22-.36c-.06-.12-.11-.25-.16-.38A3,3,0,0,1,29,9.74a3,3,0,0,1,0-.42V7.84a3.07,3.07,0,0,1,.07-.6,2.81,2.81,0,0,1,.18-.56,3.35,3.35,0,0,1,.28-.53,3.31,3.31,0,0,1,.39-.45,2.82,2.82,0,0,1,.46-.38,2.65,2.65,0,0,1,.53-.27,2.7,2.7,0,0,1,.57-.18,3.81,3.81,0,0,1,.59,0h.09V4.2a.52.52,0,0,1,0-.18.61.61,0,0,1,.05-.18,1.19,1.19,0,0,1,.08-.16l.12-.14.14-.11a.51.51,0,0,1,.16-.09l.17,0,.18,0,.18,0,.18,0a.65.65,0,0,1,.16.09l.14.11a.76.76,0,0,1,.11.14.65.65,0,0,1,.09.16,1.21,1.21,0,0,1,0,.18,1,1,0,0,1,0,.18v.62a2.62,2.62,0,0,1,.56.09,2.49,2.49,0,0,1,.54.2,3,3,0,0,1,.49.29,2.6,2.6,0,0,1,.43.38,3,3,0,0,1,.35.45,3.06,3.06,0,0,1,.26.51,3.47,3.47,0,0,1,.16.55,2.75,2.75,0,0,1,0,.57Z" transform="translate(0 -0.02)" fill="#059cd6"/></g><g clip-path="url(#clip-path-2)"><path d="M32.84,42.71c-.37,0-.74,0-1.11,0a10.07,10.07,0,0,0-1.1.17,9.47,9.47,0,0,0-1.08.27c-.36.11-.71.23-1.05.37s-.68.3-1,.48-.65.37-1,.57-.6.43-.89.67a10.92,10.92,0,0,0-1.57,1.57,10.88,10.88,0,0,0-1.23,1.85,10.16,10.16,0,0,0-.48,1,11,11,0,0,0-.37,1,10.65,10.65,0,0,0-.27,1.08,10.45,10.45,0,0,0-.17,1.1c0,.37,0,.74,0,1.11s0,.75,0,1.12.1.73.17,1.1A10.65,10.65,0,0,0,22,57.35c.11.35.23.7.37,1s.3.68.48,1a10,10,0,0,0,.57,1c.21.31.43.61.67.9a9.61,9.61,0,0,0,.74.82,9.85,9.85,0,0,0,.83.75,8.19,8.19,0,0,0,.89.66,9.32,9.32,0,0,0,1,.57,9.18,9.18,0,0,0,1,.48,9.32,9.32,0,0,0,1,.37,9.47,9.47,0,0,0,1.08.27,10.07,10.07,0,0,0,1.1.17c.37,0,.74,0,1.11,0s.74,0,1.11,0a10.07,10.07,0,0,0,1.1-.17,10.65,10.65,0,0,0,1.08-.27,11,11,0,0,0,1-.37,10.16,10.16,0,0,0,1-.48,8.24,8.24,0,0,0,1-.57q.47-.31.9-.66c.29-.24.56-.49.82-.75a9.85,9.85,0,0,0,.75-.83,8.19,8.19,0,0,0,.66-.89,11.51,11.51,0,0,0,1-2,9.32,9.32,0,0,0,.37-1A9.47,9.47,0,0,0,44,56.26a10.07,10.07,0,0,0,.17-1.1c0-.37,0-.74,0-1.11s0-.74,0-1.11-.1-.74-.17-1.1a9.47,9.47,0,0,0-.27-1.08,9.37,9.37,0,0,0-.38-1c-.14-.34-.3-.68-.47-1s-.37-.64-.57-1a9.85,9.85,0,0,0-.67-.89,8.39,8.39,0,0,0-.75-.83c-.26-.26-.53-.51-.82-.75s-.58-.45-.89-.66-.63-.4-1-.57a10.16,10.16,0,0,0-1-.48c-.35-.14-.7-.26-1-.37a10.65,10.65,0,0,0-1.08-.27,10.07,10.07,0,0,0-1.1-.17C33.58,42.73,33.21,42.71,32.84,42.71ZM36.1,53.65l.18,0,.17,0a.51.51,0,0,1,.16.09l.14.11a.81.81,0,0,1,.12.14l.08.16a.64.64,0,0,1,.06.18,1,1,0,0,1,0,.18,1.09,1.09,0,0,1,0,.18.58.58,0,0,1-.06.17.8.8,0,0,1-.08.16.81.81,0,0,1-.12.14l-.14.12-.16.08a.85.85,0,0,1-.17.06H33.79v1.72h2.49a.85.85,0,0,1,.17.06l.16.08a1.2,1.2,0,0,1,.26.26.8.8,0,0,1,.08.16A.49.49,0,0,1,37,58a1.63,1.63,0,0,1,0,.36.64.64,0,0,1-.06.18l-.08.16-.12.14-.14.11a.83.83,0,0,1-.16.09l-.17,0-.18,0H33.79v1.07a1,1,0,0,1-.07.35l-.09.16a.76.76,0,0,1-.11.14l-.15.12-.15.08a1.27,1.27,0,0,1-.18.06h-.36a.85.85,0,0,1-.17-.06l-.16-.08-.14-.12a.53.53,0,0,1-.12-.14L32,60.49a1,1,0,0,1-.07-.35V59.07h-2.3l-.18,0-.17,0a.83.83,0,0,1-.16-.09A.53.53,0,0,1,29,58.8a.75.75,0,0,1-.12-.14l-.09-.16a1.21,1.21,0,0,1-.05-.18.82.82,0,0,1,0-.36.84.84,0,0,1,.05-.17l.09-.16a.53.53,0,0,1,.12-.14.55.55,0,0,1,.14-.12l.16-.08a.85.85,0,0,1,.17-.06h2.48V55.5H29.45a.85.85,0,0,1-.17-.06l-.16-.08a.87.87,0,0,1-.14-.12.53.53,0,0,1-.12-.14l-.09-.16a1,1,0,0,1-.07-.35,1,1,0,0,1,0-.18,1.21,1.21,0,0,1,.05-.18l.09-.16a.93.93,0,0,1,.26-.25.51.51,0,0,1,.16-.09l.17,0,.18,0h1.73L28.78,49.2A1.19,1.19,0,0,1,28.7,49a1.16,1.16,0,0,1,0-.18.54.54,0,0,1,0-.18.57.57,0,0,1,0-.18.49.49,0,0,1,.06-.17.86.86,0,0,1,.1-.16A.74.74,0,0,1,29,48l.15-.11.16-.07.18,0h.18l.18,0,.17.07a.83.83,0,0,1,.16.09.8.8,0,0,1,.13.13.58.58,0,0,1,.11.15l2.45,4.27,2.48-4.3a1.14,1.14,0,0,1,.24-.25,1.3,1.3,0,0,1,.32-.14.83.83,0,0,1,.35,0,.76.76,0,0,1,.33.11,1,1,0,0,1,.26.23.83.83,0,0,1,.16.31,1,1,0,0,1,0,.34,1,1,0,0,1-.1.34l-2.58,4.45Z" transform="translate(0 -0.02)" fill="#059cd6"/></g><path d="M11.35,21.36c-.37,0-.74,0-1.11.05s-.74.09-1.1.16-.73.17-1.08.27-.71.24-1.05.38-.68.3-1,.47-.64.37-1,.58a9.43,9.43,0,0,0-.9.66c-.29.24-.56.49-.82.75a9.58,9.58,0,0,0-.75.82c-.24.29-.46.59-.67.9s-.39.62-.57,1-.33.67-.47,1a9.37,9.37,0,0,0-.38,1.05,9.47,9.47,0,0,0-.27,1.08c-.07.36-.13.73-.17,1.1s0,.74,0,1.11,0,.75.05,1.11a10.25,10.25,0,0,0,.17,1.11A10.65,10.65,0,0,0,.49,36a11,11,0,0,0,.37,1,9.18,9.18,0,0,0,.48,1,9.32,9.32,0,0,0,.57,1c.21.31.43.61.66.89s.49.57.75.83.54.51.82.75.59.46.9.66a11.51,11.51,0,0,0,2,1c.34.14.69.27,1.05.38a9.47,9.47,0,0,0,1.08.27,10,10,0,0,0,1.1.16,10.3,10.3,0,0,0,2.22,0,10,10,0,0,0,1.1-.16,9.47,9.47,0,0,0,1.08-.27,9.37,9.37,0,0,0,1-.38c.35-.14.68-.3,1-.47s.65-.37.95-.57.61-.43.9-.67a8.28,8.28,0,0,0,.82-.75,8.28,8.28,0,0,0,.75-.82,9.43,9.43,0,0,0,.66-.9c.21-.31.4-.62.58-.95s.33-.67.47-1a9.37,9.37,0,0,0,.38-1,9.47,9.47,0,0,0,.27-1.08,10,10,0,0,0,.16-1.1,10.3,10.3,0,0,0,0-2.22c0-.37-.09-.74-.16-1.11s-.17-.72-.27-1.07-.24-.71-.38-1.05a9.33,9.33,0,0,0-.48-1,9.18,9.18,0,0,0-.57-.95,9.43,9.43,0,0,0-.66-.9c-.24-.28-.48-.56-.75-.82s-.53-.51-.82-.75a9.3,9.3,0,0,0-.89-.66c-.31-.21-.63-.4-1-.58s-.66-.33-1-.47-.69-.27-1-.38a9.47,9.47,0,0,0-1.08-.27c-.36-.07-.73-.13-1.1-.17S11.72,21.36,11.35,21.36Zm2.85,8.85a.55.55,0,0,1,.18,0l.18.05.16.08.14.12a.76.76,0,0,1,.11.14.51.51,0,0,1,.09.16,1.54,1.54,0,0,1,0,.17,1.23,1.23,0,0,1,0,.19,1,1,0,0,1-.07.35.51.51,0,0,1-.09.16.76.76,0,0,1-.11.14l-.14.12-.16.08a.61.61,0,0,1-.18.05.55.55,0,0,1-.18,0H8.44a4.65,4.65,0,0,0,0,1.29h5.93a.49.49,0,0,1,.17.06.8.8,0,0,1,.16.08,1.2,1.2,0,0,1,.26.26.8.8,0,0,1,.08.16.49.49,0,0,1,.06.17.82.82,0,0,1,0,.36.64.64,0,0,1-.06.18l-.08.16a.75.75,0,0,1-.12.14L14.7,35a.83.83,0,0,1-.16.09l-.17,0-.18,0H9.07a4.69,4.69,0,0,0,.68.91,4.4,4.4,0,0,0,.9.71,4.06,4.06,0,0,0,1,.45,4.36,4.36,0,0,0,1.13.17A4.11,4.11,0,0,0,14.72,37l.17-.06a.57.57,0,0,1,.18,0h.18l.18,0,.16.07.15.11.12.13.1.15a1.15,1.15,0,0,1,.06.17.57.57,0,0,1,0,.18,1.08,1.08,0,0,1,0,.18,1.16,1.16,0,0,1,0,.18.8.8,0,0,1-.08.16.56.56,0,0,1-.1.15l-.13.13a.83.83,0,0,1-.16.09,5.91,5.91,0,0,1-2.71.64,6.07,6.07,0,0,1-.94-.08A7.13,7.13,0,0,1,11,39a6.17,6.17,0,0,1-1.68-.83,5.3,5.3,0,0,1-.73-.6,7.08,7.08,0,0,1-.64-.7,6.61,6.61,0,0,1-.52-.78,6.72,6.72,0,0,1-.4-.86H5.41l-.17-.06-.16-.08-.14-.12-.12-.14a.8.8,0,0,1-.08-.16,1.09,1.09,0,0,1,0-.17.82.82,0,0,1,0-.36,1.21,1.21,0,0,1,0-.18,1.19,1.19,0,0,1,.08-.16l.12-.14.14-.11a.51.51,0,0,1,.16-.09l.17,0,.18,0h1a6.84,6.84,0,0,1,0-1.28h-1l-.18,0L5.24,32l-.16-.09-.14-.11-.12-.14-.08-.16a1.21,1.21,0,0,1,0-.18.82.82,0,0,1,0-.36.84.84,0,0,1,0-.17.8.8,0,0,1,.08-.16l.12-.14a.53.53,0,0,1,.14-.12l.16-.09.17-.05.18,0H7a5.48,5.48,0,0,1,.4-.85,5.13,5.13,0,0,1,.52-.79,5.33,5.33,0,0,1,.63-.71,6,6,0,0,1,.73-.6,6.71,6.71,0,0,1,.81-.49,6.63,6.63,0,0,1,.87-.36,5.86,5.86,0,0,1,.92-.22,5,5,0,0,1,.94-.09,6,6,0,0,1,2.77.66l.15.1a.74.74,0,0,1,.13.12l.11.15a.87.87,0,0,1,.07.17,1.16,1.16,0,0,1,0,.18,1.09,1.09,0,0,1,0,.18,1.16,1.16,0,0,1,0,.18A.58.58,0,0,1,16,28l-.1.15a.8.8,0,0,1-.13.13l-.14.11-.17.07-.18,0a.54.54,0,0,1-.18,0,.57.57,0,0,1-.18,0l-.17-.07A4.32,4.32,0,0,0,12.83,28a4.81,4.81,0,0,0-1.13.16,4.13,4.13,0,0,0-1.06.45,4.35,4.35,0,0,0-.9.7,4.43,4.43,0,0,0-.69.92Z" transform="translate(0 -0.02)" fill="#059cd6"/><path d="M54.39,21.36c-.37,0-.74,0-1.11.05s-.74.09-1.1.16-.73.17-1.08.27-.71.24-1.05.38-.68.3-1,.47-.64.37-.95.58a9.43,9.43,0,0,0-.9.66c-.28.24-.56.49-.82.75s-.51.54-.75.82a9.43,9.43,0,0,0-.66.9c-.21.31-.4.62-.58,1s-.33.67-.47,1a9.37,9.37,0,0,0-.38,1.05,9.47,9.47,0,0,0-.27,1.08,10,10,0,0,0-.16,1.1A10.32,10.32,0,0,0,43,32.7a12.53,12.53,0,0,0,.22,2.22A10.65,10.65,0,0,0,43.53,36c.11.35.23.7.37,1a9.18,9.18,0,0,0,.48,1A9.32,9.32,0,0,0,45,39c.21.31.43.61.66.89s.49.57.75.83.54.51.83.75a9.76,9.76,0,0,0,.89.66,11.51,11.51,0,0,0,2,1c.34.14.69.27,1.05.38a9.47,9.47,0,0,0,1.08.27,10,10,0,0,0,1.1.16,10.3,10.3,0,0,0,2.22,0,11,11,0,0,0,2.19-.43,10,10,0,0,0,1-.38c.35-.14.68-.3,1-.47s.65-.37,1-.57.6-.43.89-.67a10.92,10.92,0,0,0,1.57-1.57c.24-.29.46-.59.67-.9s.39-.62.57-.95.33-.67.47-1a9.37,9.37,0,0,0,.38-1,9.47,9.47,0,0,0,.27-1.08,10,10,0,0,0,.16-1.1,10.3,10.3,0,0,0,0-2.22,10.6,10.6,0,0,0-.16-1.11,9.85,9.85,0,0,0-.27-1.07,9.37,9.37,0,0,0-.38-1.05c-.14-.35-.3-.68-.47-1s-.37-.64-.57-.95-.43-.61-.67-.9a10.92,10.92,0,0,0-1.57-1.57,8.19,8.19,0,0,0-.89-.66c-.31-.21-.63-.4-1-.58s-.66-.33-1-.47a9.37,9.37,0,0,0-1-.38,9.47,9.47,0,0,0-1.08-.27c-.36-.07-.73-.13-1.1-.17S54.76,21.36,54.39,21.36Zm3.13,18H52.15a.9.9,0,0,1-.47-.13.88.88,0,0,1-.34-.35.94.94,0,0,1-.12-.47,1,1,0,0,1,.14-.47,11.34,11.34,0,0,0,1.68-4H50.78l-.18,0-.17,0a.83.83,0,0,1-.16-.09l-.14-.11L50,33.5a1.19,1.19,0,0,1-.08-.16,1.21,1.21,0,0,1,0-.18.82.82,0,0,1,0-.36.84.84,0,0,1,0-.17.8.8,0,0,1,.08-.16l.12-.14a.81.81,0,0,1,.14-.12.8.8,0,0,1,.16-.08.58.58,0,0,1,.17-.06l.18,0H52.1a4.58,4.58,0,0,1-.6-1.11,4.68,4.68,0,0,1-.28-1.23,3.75,3.75,0,0,1,0-.82,3.54,3.54,0,0,1,.21-.79,3.38,3.38,0,0,1,.38-.73,2.9,2.9,0,0,1,.54-.62c1.61-1.43,4.23-1.06,4.52-1a.92.92,0,0,1,.32.14,1.14,1.14,0,0,1,.24.25,1.07,1.07,0,0,1,.13.31,1,1,0,0,1,0,.35,1,1,0,0,1-.12.32.82.82,0,0,1-.23.26,1.08,1.08,0,0,1-.3.16,1,1,0,0,1-.34,0c-.56-.08-2.23-.15-3,.57a1.88,1.88,0,0,0-.53,1.54,4.52,4.52,0,0,0,.44,1.23A4.22,4.22,0,0,0,54.33,32l.07.1H57l.18,0a.58.58,0,0,1,.17.06.8.8,0,0,1,.16.08.81.81,0,0,1,.14.12l.12.14a.8.8,0,0,1,.08.16.84.84,0,0,1,.05.17.82.82,0,0,1,0,.36,1.21,1.21,0,0,1-.05.18,1.19,1.19,0,0,1-.08.16l-.12.14-.14.11a.83.83,0,0,1-.16.09l-.17,0-.18,0H54.87a10,10,0,0,1-1.15,3.58h3.77a.55.55,0,0,1,.18,0l.17.05a.8.8,0,0,1,.16.08l.14.12a.53.53,0,0,1,.12.14l.09.16a1.09,1.09,0,0,1,0,.17.87.87,0,0,1,0,.37,1.09,1.09,0,0,1,0,.17l-.09.16a.53.53,0,0,1-.12.14l-.14.12-.16.08-.17,0a.55.55,0,0,1-.18,0Z" transform="translate(0 -0.02)" fill="#059cd6"/></g></g></svg>