<svg xmlns="http://www.w3.org/2000/svg" xmlns:xlink="http://www.w3.org/1999/xlink" viewBox="0 0 68.97 63.37"><defs><clipPath id="clip-path"><rect x="26.49" y="39.66" width="15.82" height="23.72" fill="none"/></clipPath><clipPath id="clip-path-2"><rect x="5.84" width="57.2" height="34.28" fill="none"/></clipPath><clipPath id="clip-path-3"><rect x="57.87" y="24.17" width="11.1" height="15.55" fill="none"/></clipPath></defs><g id="Layer_2" data-name="Layer 2"><g id="STORY_1" data-name="STORY 1"><g clip-path="url(#clip-path)"><path d="M26.69,40.06l7.4,23.31,8.14-23.68Z" fill="#223f81"/></g><path d="M43.82,55.6H24.35a11,11,0,0,1-11-11V25.15a11,11,0,0,1,11-11H43.82a11,11,0,0,1,11,11V44.61a11,11,0,0,1-11,11" fill="#059cd6"/><path d="M54.82,42.93a28.89,28.89,0,0,1-12.31,5.8,1.92,1.92,0,0,0-1.74-1.08H38.25a1.94,1.94,0,0,0,0,3.88h2.52a1.93,1.93,0,0,0,1.85-1.34,31.23,31.23,0,0,0,12.2-5.42V42.93" fill="#3f9dc8"/><g clip-path="url(#clip-path-2)"><path d="M6.53,34.22A28.88,28.88,0,0,1,6,28.48,28.49,28.49,0,1,1,62.44,33.8l-2.95-.56a26.1,26.1,0,0,0,.44-4.76,25.49,25.49,0,0,0-51,0,25.25,25.25,0,0,0,.52,5.14l-2.94.6" fill="#223f81"/></g><path d="M9.08,28.61a21.46,21.46,0,0,1,.07-3.91l0-1.05-3.74.72A6.63,6.63,0,0,0,.12,32.13l.31,1.63A6.63,6.63,0,0,0,8.19,39s3.12-.54,2.87-1.3a31.61,31.61,0,0,1-2-9.12" fill="#223f81"/><g clip-path="url(#clip-path-3)"><path d="M59.87,29.16a22.91,22.91,0,0,0-.12-3.91v-1l3.76.67a6.64,6.64,0,0,1,5.36,7.7l-.29,1.63a6.64,6.64,0,0,1-7.71,5.35S57.75,39.07,58,38.3a31.74,31.74,0,0,0,1.87-9.14" fill="#223f81"/></g><path d="M26.78,35.16A3.15,3.15,0,1,1,23.63,32a3.15,3.15,0,0,1,3.15,3.15" fill="#223f81"/><path d="M37.51,35.16A3.15,3.15,0,1,1,34.36,32a3.15,3.15,0,0,1,3.15,3.15" fill="#223f81"/><path d="M48.24,35.16A3.15,3.15,0,1,1,45.1,32a3.14,3.14,0,0,1,3.14,3.15" fill="#223f81"/><path d="M60.82,35l-1.28-.55c-3.65,8.62-12.13,12-17.41,13.15a1.85,1.85,0,0,0-1.66-1h-2.4a1.85,1.85,0,1,0,0,3.7h2.4A1.85,1.85,0,0,0,42.23,49c5.59-1.18,14.68-4.77,18.59-14" fill="#223f81"/></g></g></svg>