<svg xmlns="http://www.w3.org/2000/svg" viewBox="0 0 65.73 57.65"><g id="Layer_2" data-name="Layer 2"><g id="STORY_1" data-name="STORY 1"><circle cx="35.03" cy="30.36" r="19.76" fill="#059cd6"/><circle cx="52.59" cy="43.82" r="11.54" fill="#059cd6"/><path d="M27.46,2a2.58,2.58,0,0,0,0,.4,2.4,2.4,0,0,0,.12.38,1.55,1.55,0,0,0,.19.36,2.42,2.42,0,0,0,.25.31l.31.25a2.37,2.37,0,0,0,.35.19,1.74,1.74,0,0,0,.39.11,1.72,1.72,0,0,0,.39,0H39.84a1.75,1.75,0,0,0,.4,0,1.66,1.66,0,0,0,.38-.11A2,2,0,0,0,41,3.74l.31-.25a2.42,2.42,0,0,0,.25-.31,2,2,0,0,0,.19-.36,2.4,2.4,0,0,0,.12-.38,2.6,2.6,0,0,0,0-.4,2.69,2.69,0,0,0,0-.4,2.4,2.4,0,0,0-.12-.38,2.37,2.37,0,0,0-.19-.35A1.89,1.89,0,0,0,41.29.6,2.51,2.51,0,0,0,41,.34a2,2,0,0,0-.36-.18A1.68,1.68,0,0,0,40.24,0a1.75,1.75,0,0,0-.4,0H29.5a1.72,1.72,0,0,0-.39,0,1.76,1.76,0,0,0-.39.12,2.31,2.31,0,0,0-.35.18,2.51,2.51,0,0,0-.31.26,1.89,1.89,0,0,0-.25.31,1.7,1.7,0,0,0-.19.35,2.4,2.4,0,0,0-.12.38A2.71,2.71,0,0,0,27.46,2Z" fill="#223f81"/><path d="M34.67,34.09a3.64,3.64,0,0,0,.57,0,2.66,2.66,0,0,0,.56-.12,3.93,3.93,0,0,0,.54-.2,3.46,3.46,0,0,0,.5-.27,3.79,3.79,0,0,0,.45-.34,4,4,0,0,0,.41-.41,3.79,3.79,0,0,0,.34-.45,4.11,4.11,0,0,0,.27-.51,3.39,3.39,0,0,0,.2-.53,5.05,5.05,0,0,0,.12-.56,3.63,3.63,0,0,0,0-1.14A5.59,5.59,0,0,0,38.5,29a4.81,4.81,0,0,0-.2-.53c-.09-.17-.18-.34-.28-.5a3.87,3.87,0,0,0-.35-.45L43.85,19a1.51,1.51,0,0,0,.2-.35,1.63,1.63,0,0,0,.13-.37,1.84,1.84,0,0,0,.06-.4,2.61,2.61,0,0,0,0-.4,2.85,2.85,0,0,0-.11-.39,2,2,0,0,0-.17-.36,2.43,2.43,0,0,0-.24-.32,1.87,1.87,0,0,0-.3-.26,2,2,0,0,0-.35-.21,2.12,2.12,0,0,0-.38-.13,1.74,1.74,0,0,0-.39,0,1.79,1.79,0,0,0-.4,0,2.79,2.79,0,0,0-.39.1,3,3,0,0,0-.36.18,2.43,2.43,0,0,0-.32.24,2.55,2.55,0,0,0-.26.3l-7.07,9.74a4.06,4.06,0,0,0-.65.27,4.67,4.67,0,0,0-.6.38,5.79,5.79,0,0,0-.51.48,4.73,4.73,0,0,0-.43.57,4.65,4.65,0,0,0-.32.63,4.87,4.87,0,0,0-.2.68,4.06,4.06,0,0,0-.08.7,3.3,3.3,0,0,0,0,.7,3.85,3.85,0,0,0,.16.69,4.17,4.17,0,0,0,.29.65,3.74,3.74,0,0,0,.4.58,4.7,4.7,0,0,0,.49.51,4.57,4.57,0,0,0,.57.41,4.12,4.12,0,0,0,.64.3A4,4,0,0,0,34,34,4.14,4.14,0,0,0,34.67,34.09Z" fill="#223f81"/><path d="M15.53,41.68a22.88,22.88,0,0,0,3.28,4.19H13.19a2.58,2.58,0,0,0-.4,0,2.4,2.4,0,0,0-.38.12,1.55,1.55,0,0,0-.36.19,2.42,2.42,0,0,0-.31.25,3.76,3.76,0,0,0-.25.31,2.37,2.37,0,0,0-.19.35,1.9,1.9,0,0,0-.11.39,1.75,1.75,0,0,0,0,.4,2.31,2.31,0,0,0,.15.78,2.37,2.37,0,0,0,.19.35,3.76,3.76,0,0,0,.25.31,2.42,2.42,0,0,0,.31.25,1.55,1.55,0,0,0,.36.19,2.4,2.4,0,0,0,.38.12,2.58,2.58,0,0,0,.4,0H24.4c.64.33,1.29.63,2,.9s1.34.5,2,.7a19.28,19.28,0,0,0,2.09.51c.71.14,1.41.24,2.13.31s1.43.1,2.14.09a19.23,19.23,0,0,0,2.15-.11c.71-.07,1.42-.17,2.12-.31a21.26,21.26,0,0,0,2.09-.52c.14.22.29.44.45.65s.32.42.49.63.34.4.52.59.37.38.56.56a12.56,12.56,0,0,0,1.21,1l.64.46c.22.15.45.28.68.42l.69.37.72.34.74.29q.38.14.75.24c.25.08.51.14.77.2l.77.16.79.11.78.06c.27,0,.53,0,.8,0l.79,0,.78-.08c.27,0,.53-.07.79-.12l.77-.17.76-.22c.25-.08.5-.16.75-.26s.49-.19.73-.3.48-.22.71-.35.47-.25.69-.38l.67-.43c.22-.15.43-.31.64-.47s.41-.33.61-.5.39-.35.58-.54l.55-.57.51-.6c.16-.21.32-.42.47-.64a7.57,7.57,0,0,0,.44-.66c.14-.22.28-.45.4-.68s.25-.47.36-.71.22-.48.31-.73.19-.49.28-.74.15-.5.22-.76.13-.51.18-.77.1-.52.14-.78.07-.53.09-.79,0-.52,0-.79,0-.53,0-.79,0-.53,0-.79-.06-.53-.1-.79-.08-.52-.14-.78-.12-.51-.19-.77-.15-.5-.23-.75-.18-.5-.28-.75-.21-.48-.32-.72-.24-.47-.37-.7-.26-.46-.4-.69-.29-.44-.44-.65-.32-.42-.49-.63-.33-.4-.51-.6l-.56-.57c-.19-.18-.38-.36-.58-.53l-.62-.5-.64-.46c-.22-.15-.44-.29-.67-.42l-.69-.38c-.24-.12-.48-.24-.72-.34s-.48-.21-.73-.3c0-.53.06-1,.06-1.58a22.63,22.63,0,0,0-1.69-8.54l3-1.31,2.56,3a3.3,3.3,0,0,0,.3.22,1.68,1.68,0,0,0,.33.16,2,2,0,0,0,.35.11,2.3,2.3,0,0,0,.74,0,2,2,0,0,0,.35-.09,2.11,2.11,0,0,0,.34-.16,1.91,1.91,0,0,0,.3-.22,2.06,2.06,0,0,0,.25-.26,2.11,2.11,0,0,0,.21-.31,3.45,3.45,0,0,0,.14-.34,1.55,1.55,0,0,0,.08-.36,2.23,2.23,0,0,0,0-.37c0-.12,0-.24,0-.36a2.06,2.06,0,0,0-.12-.35,2.11,2.11,0,0,0-.18-.33l-7.14-8.32a3.15,3.15,0,0,0-.29-.22,2.49,2.49,0,0,0-.33-.16,2.35,2.35,0,0,0-.35-.11l-.37,0a1.54,1.54,0,0,0-.37,0l-.36.09a2.49,2.49,0,0,0-.33.16l-.3.21a3.08,3.08,0,0,0-.25.27,2.11,2.11,0,0,0-.21.31,2,2,0,0,0-.14.34,1.55,1.55,0,0,0-.08.36,1.51,1.51,0,0,0,0,.37,2.23,2.23,0,0,0,0,.36,2.06,2.06,0,0,0,.12.35,2.11,2.11,0,0,0,.18.33l1.77,2-2.13.94c-.32-.49-.65-1-1-1.41s-.72-.91-1.1-1.34-.79-.84-1.2-1.24-.85-.78-1.3-1.15-.9-.71-1.38-1-1-.64-1.45-.93-1-.57-1.52-.82-1.05-.48-1.59-.7-1.08-.4-1.63-.57-1.1-.32-1.67-.44-1.12-.23-1.7-.32-1.14-.14-1.71-.18-1.15,0-1.73,0-1.15,0-1.73.09S31.56,7.92,31,8s-1.13.22-1.69.35-1.12.3-1.66.48-1.09.39-1.62.61-1.05.47-1.57.73-1,.55-1.5.85-1,.62-1.44,1-.92.7-1.36,1.07-.86.77-1.27,1.18-.8.83-1.17,1.26-.74.89-1.08,1.36-.66.94-1,1.43-.59,1-.86,1.51-.51,1-.73,1.56-.43,1.07-.61,1.62-.35,1.1-.49,1.66-.26,1.12-.35,1.69-.18,1.14-.23,1.72H2a1.81,1.81,0,0,0-.4,0,1.66,1.66,0,0,0-.38.11,2.37,2.37,0,0,0-.35.19,1.94,1.94,0,0,0-.31.26,1.87,1.87,0,0,0-.26.3,2.42,2.42,0,0,0-.18.36,1.68,1.68,0,0,0-.12.38,1.75,1.75,0,0,0,0,.4,1.81,1.81,0,0,0,0,.4,1.68,1.68,0,0,0,.12.38,2.31,2.31,0,0,0,.18.35,1.94,1.94,0,0,0,.26.31,1.94,1.94,0,0,0,.31.26,3.9,3.9,0,0,0,.35.19,1.66,1.66,0,0,0,.38.11,1.81,1.81,0,0,0,.4,0H12.4a22.2,22.2,0,0,0,1.19,5.46H6.19a2.71,2.71,0,0,0-.4,0,2.4,2.4,0,0,0-.38.12,1.7,1.7,0,0,0-.35.19,1.89,1.89,0,0,0-.31.25,2.51,2.51,0,0,0-.26.31,2.31,2.31,0,0,0-.18.35,1.94,1.94,0,0,0-.12.39,1.75,1.75,0,0,0,0,.4,1.72,1.72,0,0,0,0,.39,1.76,1.76,0,0,0,.12.39,2.31,2.31,0,0,0,.18.35,2.51,2.51,0,0,0,.26.31,1.89,1.89,0,0,0,.31.25,1.7,1.7,0,0,0,.35.19,2.4,2.4,0,0,0,.38.12,2.71,2.71,0,0,0,.4,0Zm46.12,2.56c0,.27,0,.53,0,.79s0,.53-.09.79a6.33,6.33,0,0,1-.16.78c-.06.26-.14.51-.22.76s-.19.5-.29.74-.23.48-.35.72-.27.46-.41.68-.31.43-.47.64a8.9,8.9,0,0,1-1.09,1.15c-.2.18-.4.35-.61.51a9.48,9.48,0,0,1-1.35.84,7.89,7.89,0,0,1-.72.33c-.24.1-.49.19-.74.27s-.51.15-.77.21-.52.1-.78.13-.53.06-.79.08-.53,0-.8,0-.53,0-.79-.06-.52-.08-.78-.14-.52-.12-.77-.19L48.89,53a6.58,6.58,0,0,1-.72-.32c-.24-.12-.47-.25-.7-.39s-.44-.28-.65-.44a7.52,7.52,0,0,1-.62-.5c-.2-.17-.39-.36-.58-.55s-.35-.39-.52-.59a7,7,0,0,1-.47-.64c-.15-.22-.29-.45-.42-.68s-.25-.47-.36-.71A9,9,0,0,1,43,44.24a8.43,8.43,0,0,1,.18-1.82c.06-.3.13-.59.22-.89a8.82,8.82,0,0,1,.31-.86,6.94,6.94,0,0,1,.39-.83,7.68,7.68,0,0,1,.47-.78c.17-.26.35-.5.54-.74s.4-.46.62-.68a8,8,0,0,1,.68-.61c.23-.19.48-.38.73-.55s.52-.32.78-.47.55-.27.83-.39a8.84,8.84,0,0,1,1.75-.53c.3-.06.6-.11.9-.14s.61,0,.92,0a10.09,10.09,0,0,1,2,.21c.25.06.51.13.76.21s.49.17.74.27.48.21.71.33.47.25.69.38.44.29.65.45.41.32.61.5a7.4,7.4,0,0,1,.57.55c.18.19.35.38.52.59s.32.42.46.64a7.57,7.57,0,0,1,.42.67c.12.23.24.46.35.7a6.67,6.67,0,0,1,.29.74,5.94,5.94,0,0,1,.23.75,6.6,6.6,0,0,1,.17.77,10.26,10.26,0,0,1,.14,1.57ZM16.5,32.13h7.84a1.75,1.75,0,0,0,.4,0,1.66,1.66,0,0,0,.38-.11l.36-.19a2.51,2.51,0,0,0,.31-.26,2.6,2.6,0,0,0,.25-.31,2.37,2.37,0,0,0,.19-.35,1.66,1.66,0,0,0,.11-.38,1.81,1.81,0,0,0,0-.4,1.75,1.75,0,0,0,0-.4,1.66,1.66,0,0,0-.11-.38,1.91,1.91,0,0,0-.44-.66,2.51,2.51,0,0,0-.31-.26,2.47,2.47,0,0,0-.36-.19,1.66,1.66,0,0,0-.38-.11,1.75,1.75,0,0,0-.4,0H16.5c0-.29.07-.57.12-.86s.1-.57.16-.85.13-.56.2-.84.15-.56.24-.83.18-.55.28-.82.2-.54.32-.81.23-.52.35-.78.25-.52.39-.77.28-.51.43-.76.3-.49.46-.73.32-.47.5-.71.34-.46.52-.68L21,18c.2-.21.39-.42.6-.63s.4-.41.62-.6.42-.39.64-.57.45-.37.68-.54.46-.35.7-.51.47-.33.72-.48l.74-.44.76-.4.79-.37c.26-.12.52-.23.79-.33s.54-.2.82-.3l.82-.25q.42-.12.84-.21t.84-.18c.29-.05.57-.1.86-.13l.86-.1.86-.05.86,0,.87,0,.86.07.85.11c.29,0,.57.09.85.15l.85.19.83.23c.28.08.55.17.82.27l.81.3.79.35.78.38.75.42c.25.14.5.29.74.45s.48.32.71.49.47.34.69.52l.67.55.63.59c.21.2.41.4.61.61s.39.42.58.64.37.44.55.67.35.46.52.69.33.48.48.72.31.49.45.74.28.5.41.76.26.51.38.77.24.53.34.8.21.54.31.81.18.54.26.82.16.56.23.84.13.56.18.84.1.57.15.85.07.57.1.86,0,.58.07.86,0,.58,0,.87v.74h-.61l-.66,0-.66,0-.65.08-.65.11-.64.14-.63.18-.63.2-.61.24c-.21.09-.41.17-.6.27l-.59.29c-.2.11-.39.21-.58.33l-.55.35-.54.38-.52.4-.5.43c-.16.15-.32.3-.47.46s-.31.31-.46.47l-.43.5c-.14.17-.27.34-.4.52s-.26.36-.38.54-.24.37-.36.55-.22.38-.32.58-.2.39-.3.58l-.27.61c-.08.2-.16.4-.23.61s-.15.42-.21.63l-.18.63c-.05.21-.1.43-.14.64s-.08.43-.12.65,0,.44-.08.66,0,.43,0,.65,0,.44,0,.66A8.54,8.54,0,0,0,39,45.58v.25a5.94,5.94,0,0,0,.21,1.25l.06.25a1.35,1.35,0,0,0,.11.45,17.86,17.86,0,0,1-9.18.06,2.32,2.32,0,0,0-.05-.38,1.47,1.47,0,0,0-.13-.37,1.69,1.69,0,0,0-.45-.64,1.81,1.81,0,0,0-.3-.25,2.31,2.31,0,0,0-.35-.18,2.26,2.26,0,0,0-.37-.11,2.58,2.58,0,0,0-.39,0H25.43a18.25,18.25,0,0,1-4.91-4.19h3.82a2.58,2.58,0,0,0,.4,0,2.4,2.4,0,0,0,.38-.12,1.78,1.78,0,0,0,.36-.19,2.42,2.42,0,0,0,.31-.25,3.76,3.76,0,0,0,.25-.31,2.37,2.37,0,0,0,.19-.35,2.07,2.07,0,0,0,.11-1.18,1.9,1.9,0,0,0-.11-.39A2.37,2.37,0,0,0,26,38.5a3.76,3.76,0,0,0-.25-.31,2.42,2.42,0,0,0-.31-.25,1.78,1.78,0,0,0-.36-.19,2.4,2.4,0,0,0-.38-.12,2.58,2.58,0,0,0-.4,0H18A17.88,17.88,0,0,1,16.5,32.13Z" fill="#223f81"/><path d="M51.25,46l-1.41-1.4a2.44,2.44,0,0,0-.31-.22,2.07,2.07,0,0,0-.34-.15,1.25,1.25,0,0,0-.37-.09,2.43,2.43,0,0,0-.38,0l-.38,0-.36.12a1.77,1.77,0,0,0-.33.19,1.76,1.76,0,0,0-.3.24,3.36,3.36,0,0,0-.24.29,2.21,2.21,0,0,0-.18.34,1.9,1.9,0,0,0-.12.36,1.58,1.58,0,0,0-.05.38,1.64,1.64,0,0,0,0,.38,2.49,2.49,0,0,0,.09.37,2.11,2.11,0,0,0,.16.34,1.34,1.34,0,0,0,.22.31l2,2a3.59,3.59,0,0,0,2.49,1,2.85,2.85,0,0,0,.64-.07,3.3,3.3,0,0,0,.81-.25,3.35,3.35,0,0,0,.72-.45,3.41,3.41,0,0,0,.6-.6,3.71,3.71,0,0,0,.44-.74L58,40.92a1.71,1.71,0,0,0,.13-.38,2.73,2.73,0,0,0,0-.4,2.69,2.69,0,0,0,0-.4,2.85,2.85,0,0,0-.11-.39,2.31,2.31,0,0,0-.18-.35,1.54,1.54,0,0,0-.25-.32,1.87,1.87,0,0,0-.3-.26,2.43,2.43,0,0,0-.35-.2,2.4,2.4,0,0,0-.38-.12,1.75,1.75,0,0,0-.4-.05l-.39,0a1.74,1.74,0,0,0-.39.11,1.35,1.35,0,0,0-.36.18,1.83,1.83,0,0,0-.31.24,1.53,1.53,0,0,0-.26.31,1.68,1.68,0,0,0-.2.34Z" fill="#223f81"/></g></g></svg>