<svg xmlns="http://www.w3.org/2000/svg" xmlns:xlink="http://www.w3.org/1999/xlink" viewBox="0 0 64.4 65.64"><defs><clipPath id="clip-path"><rect x="29.68" y="32.32" width="34.72" height="19.93" fill="none"/></clipPath></defs><g id="Layer_2" data-name="Layer 2"><g id="STORY_1" data-name="STORY 1"><path d="M3.39,51.21l9.46-2.55c1.77-.48,3.5-.69,5,.31a57.91,57.91,0,0,0,7.42,4.65,2.36,2.36,0,0,1,.84,3.15,2.28,2.28,0,0,1-3.14.84l1.05.47a5.35,5.35,0,0,0,3.67.33l9.09-2.48c7.07-1.92,6.5,3.8,4.13,4.51l-16.63,5a5.4,5.4,0,0,1-4.4-.54l-9.61-5.55L5.89,60.5a1.6,1.6,0,0,1-2-1.13l-1.66-6.2A1.6,1.6,0,0,1,3.39,51.21Z" fill="#f6dccd" fill-rule="evenodd"/><path d="M25.84,57.21a2.33,2.33,0,0,1-2.82.4c-1.58-.9-3.15-1.82-4.72-2.73a.87.87,0,0,1-.33-1.2.89.89,0,0,1,1.21-.32Z" fill="#f1cbbc" fill-rule="evenodd"/><path d="M3.39,51.21l9.46-2.55c1.77-.48,3.5-.69,5,.31.91.6,2.12,1.49,3.5,2.4L3.1,56.27l-.83-3.1A1.6,1.6,0,0,1,3.39,51.21Z" fill="#f1cbbc" fill-rule="evenodd"/><path d="M4.9,48.85l3.42,13.2a1.2,1.2,0,0,1-.86,1.46l-2.54.66a1.21,1.21,0,0,1-1.46-.86L0,50.1A1.2,1.2,0,0,1,.9,48.64L3.44,48A1.19,1.19,0,0,1,4.9,48.85Z" fill="#fff" fill-rule="evenodd"/><path d="M6.2,57.64,6.81,60l.6,2.31a1.2,1.2,0,0,1-.86,1.46l.91-.23a1.21,1.21,0,0,0,.86-1.46l-.6-2.32L6.51,55.07l-1.2-4.66L4.9,48.85A1.19,1.19,0,0,0,3.7,48l.7,2.71,1.2,4.66Z" fill="#0d2149" fill-rule="evenodd"/><path d="M3,50.16a.83.83,0,0,0-.91.72.81.81,0,0,0,.72.9A.82.82,0,1,0,3,50.16Z" fill="#059cd6" fill-rule="evenodd"/><g clip-path="url(#clip-path)"><path d="M30.43,32.52H63.7a.7.7,0,0,1,.7.69V51.53a.7.7,0,0,1-.7.7H30.43a.7.7,0,0,1-.7-.7V33.21A.7.7,0,0,1,30.43,32.52Z" fill="#059cd6" fill-rule="evenodd"/><path d="M62.72,32.52h1a.7.7,0,0,1,.7.69V51.53a.7.7,0,0,1-.7.7H30.43a.7.7,0,0,1-.7-.7v-1H62a.7.7,0,0,0,.7-.7Z" fill="#8c8c8c" fill-rule="evenodd"/></g><path d="M35.52,35.49H58.61a.32.32,0,0,1,.32.28,2.24,2.24,0,0,0,2,1.94.33.33,0,0,1,.28.33v8.67a.32.32,0,0,1-.28.32,2.25,2.25,0,0,0-2,1.95.32.32,0,0,1-.32.28H35.52A.32.32,0,0,1,35.2,49a2.26,2.26,0,0,0-2-1.95.32.32,0,0,1-.28-.32V38a.33.33,0,0,1,.28-.33,2.25,2.25,0,0,0,2-1.94A.32.32,0,0,1,35.52,35.49Z" fill="#eceff1" fill-rule="evenodd"/><path d="M59.28,48a2.36,2.36,0,0,0-.35.95.32.32,0,0,1-.32.28H35.52A.32.32,0,0,1,35.2,49a2.26,2.26,0,0,0-2-1.95.32.32,0,0,1-.28-.32V38a.33.33,0,0,1,.28-.33,2.3,2.3,0,0,0,.93-.33v8.1a.32.32,0,0,0,.28.32,2.24,2.24,0,0,1,1.94,1.94.32.32,0,0,0,.32.29Z" fill="#d1d1d6" fill-rule="evenodd"/><path d="M57,41.11a1.27,1.27,0,0,1,0,2.53,1.27,1.27,0,1,1,0-2.53Z" fill="#059cd6" fill-rule="evenodd"/><path d="M37.09,41.11a1.27,1.27,0,1,1-1.26,1.26A1.26,1.26,0,0,1,37.09,41.11Z" fill="#6cf5c2" fill-rule="evenodd"/><path d="M50.08,39.88a1.09,1.09,0,0,1-.59,1.43,1.08,1.08,0,0,1-1.43-.58.93.93,0,0,0-.66-.57,1.42,1.42,0,0,0-.58,0,1.24,1.24,0,0,0-.45.2.44.44,0,0,0-.17.38.31.31,0,0,0,.17.27,2.4,2.4,0,0,0,.88.28,5.14,5.14,0,0,1,1.77.59,2.56,2.56,0,0,1,1.3,2,1.61,1.61,0,0,1,0,.26,2.35,2.35,0,0,1-1,2,3.28,3.28,0,0,1-1.19.57h0a1.1,1.1,0,0,1-2.19,0v0a3.53,3.53,0,0,1-.9-.42,2.93,2.93,0,0,1-1.25-1.76,1.09,1.09,0,1,1,2.12-.53.8.8,0,0,0,.33.47,1.53,1.53,0,0,0,.86.22l.2,0a1.53,1.53,0,0,0,.71-.24.29.29,0,0,0,.12-.22v-.06a.5.5,0,0,0-.26-.36,2.74,2.74,0,0,0-1-.3,4.55,4.55,0,0,1-1.72-.61,2.42,2.42,0,0,1-1.16-2,2.54,2.54,0,0,1,1-2.17,3,3,0,0,1,1-.53v0a1.1,1.1,0,1,1,2.19,0v0A3.09,3.09,0,0,1,50.08,39.88Z" fill="#059cd6" fill-rule="evenodd"/><path d="M33.87,10.57l1.62,4.85a66.85,66.85,0,0,1,9.25,11.77c6.19,10.86-2.61,21.88-14.39,21.68C18.57,49.07,9.77,38.05,16,27.19a67.33,67.33,0,0,1,9.25-11.77l1.63-4.84-4-4A2.49,2.49,0,0,1,26,2.76a1.24,1.24,0,0,0,1.18.11A1.25,1.25,0,0,0,27.92,2a2.49,2.49,0,0,1,4.86,0,1.27,1.27,0,0,0,.76.91,1.24,1.24,0,0,0,1.18-.11,2.49,2.49,0,0,1,3.11,3.86Z" fill="#059cd6" fill-rule="evenodd"/><path d="M33.87,10.57l1.62,4.85a66.85,66.85,0,0,1,9.25,11.77c6.19,10.86-2.61,21.88-14.39,21.68-.47,0-.93,0-1.39,0C40,48.19,47.91,37.62,42,27.19a67.82,67.82,0,0,0-9.25-11.77l-1.63-4.85,4-3.95a2.49,2.49,0,0,0,0-3.52h0a2.17,2.17,0,0,0-.37-.31l0,0a2.51,2.51,0,0,1,3.11.34h0a2.49,2.49,0,0,1,0,3.52ZM23.24,2.79A2.57,2.57,0,0,1,25,2.39a1.2,1.2,0,0,1-.58.48A1.24,1.24,0,0,1,23.24,2.79ZM29,.43A2.49,2.49,0,0,1,30,2a1.25,1.25,0,0,0,.76.91A1.24,1.24,0,0,0,32,2.76a2.52,2.52,0,0,1,1-.37A1.39,1.39,0,0,1,32.78,2,2.48,2.48,0,0,0,29,.43Z" fill="#0d2149" fill-rule="evenodd"/><path d="M25,15.42h10.8a2.42,2.42,0,1,0,0-4.84H25a2.42,2.42,0,1,0,0,4.84Z" fill="#837683" fill-rule="evenodd"/><path d="M33.87,15.42h1.88a2.42,2.42,0,1,0,0-4.84H33.87a2.42,2.42,0,1,1,0,4.84Z" fill="#685e68" fill-rule="evenodd"/><path d="M41.25,33.75a9.46,9.46,0,0,1-.06,1.07A9.32,9.32,0,0,1,41,35.88c-.07.35-.16.69-.26,1s-.23.67-.36,1-.29.65-.46,1a10.47,10.47,0,0,1-.55.91,9.13,9.13,0,0,1-.64.86,9,9,0,0,1-1.51,1.51,9.13,9.13,0,0,1-.86.64,10.47,10.47,0,0,1-.91.55c-.32.17-.64.32-1,.46s-.66.25-1,.36-.68.19-1,.26a10.42,10.42,0,0,1-3.2.15,9.15,9.15,0,0,1-1.05-.15c-.36-.07-.7-.16-1-.26s-.68-.23-1-.36-.65-.29-1-.46a10.47,10.47,0,0,1-.91-.55,9.13,9.13,0,0,1-.86-.64,10.1,10.1,0,0,1-1.51-1.51,9.13,9.13,0,0,1-.64-.86,10.47,10.47,0,0,1-.55-.91c-.17-.32-.32-.64-.46-1s-.25-.66-.36-1-.19-.69-.26-1a9.32,9.32,0,0,1-.15-1.06,9.48,9.48,0,0,1,0-2.13,9.32,9.32,0,0,1,.15-1.06c.07-.35.16-.7.26-1s.23-.67.36-1,.29-.66.46-1a10.64,10.64,0,0,1,.55-.92c.2-.29.41-.58.64-.86a8.86,8.86,0,0,1,.72-.79c.25-.25.51-.49.79-.72s.56-.43.86-.63a10.47,10.47,0,0,1,.91-.55c.32-.17.64-.32,1-.46a9.35,9.35,0,0,1,1-.36c.34-.1.68-.19,1-.26s.7-.12,1.05-.16.71-.05,1.07-.05.71,0,1.07.05.71.09,1.06.16.69.16,1,.26a8.64,8.64,0,0,1,1,.36c.33.14.65.29,1,.46a10.47,10.47,0,0,1,.91.55c.3.2.59.41.86.63s.54.47.8.72a10.55,10.55,0,0,1,.71.79c.23.28.44.57.64.86a10.64,10.64,0,0,1,.55.92c.17.31.32.64.46,1s.25.66.36,1,.19.69.26,1a12.69,12.69,0,0,1,.21,2.12Z" fill="#fff"/><path d="M30.35,22.86a10.9,10.9,0,1,1,0,21.79c-.26,0-.52,0-.77,0a10.89,10.89,0,0,0,0-21.73C29.83,22.87,30.09,22.86,30.35,22.86Z" fill="#0694b5" fill-rule="evenodd"/><path d="M33.87,34.77a3.16,3.16,0,0,1,2.26.94,3.19,3.19,0,0,1,0,4.52,3.16,3.16,0,0,1-2.26.94,3.2,3.2,0,0,1,0-6.4Zm-6.46,4.94,7.65-10.64a1.09,1.09,0,0,0-1.77-1.28L25.64,38.44a1.09,1.09,0,0,0,1.77,1.27Zm7.18-2.45a1,1,0,0,0-.72-.3,1,1,0,0,0-.71.3,1,1,0,0,0,0,1.42,1,1,0,0,0,.71.3,1,1,0,0,0,.72-1.72ZM26.83,26.34a3.21,3.21,0,1,1-2.26.94A3.19,3.19,0,0,1,26.83,26.34Zm.71,2.48a1,1,0,0,1,.3.72,1,1,0,0,1-.3.71,1,1,0,0,1-.71.3,1,1,0,0,1-.72-.3,1,1,0,0,1-.29-.71,1,1,0,0,1,1-1A1,1,0,0,1,27.54,28.82Z" fill="#059cd6" fill-rule="evenodd"/></g></g></svg>